<?xml version="1.0" encoding="utf-8"?>
<!-- Generator: Adobe Illustrator 23.0.1, SVG Export Plug-In . SVG Version: 6.00 Build 0)  -->
<svg version="1.1" id="Layer_1" xmlns="http://www.w3.org/2000/svg" xmlns:xlink="http://www.w3.org/1999/xlink" x="0px" y="0px"
	 viewBox="0 0 133 78" style="enable-background:new 0 0 133 78;" xml:space="preserve">
<style type="text/css">
	.st0{fill:#FFFFFF;stroke:#024423;stroke-width:0.75;stroke-miterlimit:10;}
	.st1{fill:#024423;stroke:#020101;stroke-width:0.25;stroke-miterlimit:10;}
	.st2{fill:#F3A435;}
	.st3{fill:#153800;}
</style>
<path class="st0" d="M42.4,12.5c0,0,7,5.9-1.3,21.3c0,0-11.1,21.5,24.7,26.8c0,0-13.4-9.1-9.1-24C56.6,36.5,64.5,16.5,42.4,12.5z"/>
<path class="st0" d="M94.4,12.5c0,0-7,5.9,1.3,21.3c0,0,11.1,21.5-24.7,26.8c0,0,13.4-9.1,9.1-24C80,36.5,72.3,16.5,94.4,12.5z"/>
<path class="st1" d="M71.4,7.2c0,1.8-1.5,3.2-3.2,3.2c-1.8,0-3.2-1.5-3.2-3.2C65,5.4,66.5,4,68.2,4C70,4,71.4,5.5,71.4,7.2z"/>
<path class="st1" d="M79.7,12.6c0,1.8-1.5,3.2-3.2,3.2c-1.8,0-3.2-1.5-3.2-3.2c0-1.8,1.5-3.2,3.2-3.2S79.7,10.8,79.7,12.6z"/>
<path class="st1" d="M62.9,13c0,1.8-1.5,3.2-3.2,3.2c-1.8,0-3.2-1.5-3.2-3.2c0-1.8,1.5-3.2,3.2-3.2S62.9,11.2,62.9,13z"/>
<path class="st2" d="M68.2,17.8c0,0-22.3,20.9,0,42.8C68.2,60.6,90.1,41.6,68.2,17.8z"/>
<text transform="matrix(1 0 0 1 -321.4457 975.6276)" style="font-family:'BaronNeueBold'; font-size:90px;">Jumuia Conference &amp; Country Home Limuru</text>
<g>
	<path class="st3" d="M5.7,73.1c0,1.5-0.3,2.6-1,3.4c-0.7,0.8-1.7,1.2-3,1.2c-0.6,0-1.1-0.1-1.6-0.3v-2.4c0.4,0.3,0.9,0.5,1.4,0.5
		c1.1,0,1.7-0.8,1.7-2.5v-6.6h2.5V73.1z"/>
	<path class="st3" d="M17.2,72.7c0,3.3-1.6,5-4.7,5c-3,0-4.5-1.6-4.5-4.9v-6.4h2.5v6.5c0,1.8,0.7,2.7,2.1,2.7c1.4,0,2.1-0.9,2.1-2.6
		v-6.5h2.5V72.7z"/>
	<path class="st3" d="M32.3,77.5h-2.5v-6.7c0-0.7,0-1.5,0.1-2.4h-0.1c-0.1,0.7-0.2,1.2-0.3,1.5l-2.6,7.6h-2l-2.7-7.5
		c-0.1-0.2-0.2-0.7-0.3-1.6h-0.1c0.1,1.1,0.1,2.1,0.1,2.9v6.2h-2.3V66.4h3.7l2.3,6.6c0.2,0.5,0.3,1.1,0.4,1.6h0
		c0.1-0.6,0.3-1.2,0.4-1.6l2.3-6.6h3.6V77.5z"/>
	<path class="st3" d="M43.9,72.7c0,3.3-1.6,5-4.7,5c-3,0-4.5-1.6-4.5-4.9v-6.4h2.5v6.5c0,1.8,0.7,2.7,2.1,2.7c1.4,0,2.1-0.9,2.1-2.6
		v-6.5h2.5V72.7z"/>
	<path class="st3" d="M49.7,66.4v1.9h-0.9v7.2h0.9v1.9h-4.4v-1.9h0.9v-7.2h-0.9v-1.9H49.7z"/>
	<path class="st3" d="M61.1,77.5h-2.7l-0.8-2.5h-4l-0.8,2.5h-2.7l4-11.1h3L61.1,77.5z M57,73.1l-1.2-3.7c-0.1-0.3-0.2-0.6-0.2-1
		h-0.1c0,0.3-0.1,0.6-0.2,1l-1.2,3.8H57z"/>
	<path class="st3" d="M76.2,77.5h-2.9l-1.7-2.9c-0.1-0.2-0.3-0.4-0.4-0.6c-0.1-0.2-0.2-0.3-0.4-0.4c-0.1-0.1-0.2-0.2-0.4-0.3
		c-0.1-0.1-0.3-0.1-0.4-0.1h-0.7v4.3h-2.5V66.4h4c2.7,0,4,1,4,3c0,0.4-0.1,0.7-0.2,1.1c-0.1,0.3-0.3,0.6-0.5,0.9
		c-0.2,0.3-0.5,0.5-0.8,0.7c-0.3,0.2-0.7,0.3-1,0.5v0c0.2,0.1,0.3,0.1,0.5,0.3c0.2,0.1,0.3,0.3,0.5,0.4c0.1,0.2,0.3,0.3,0.4,0.5
		c0.1,0.2,0.3,0.4,0.4,0.5L76.2,77.5z M69.4,68.3v3.1h1.1c0.5,0,1-0.2,1.3-0.5c0.3-0.3,0.5-0.7,0.5-1.2c0-1-0.6-1.5-1.7-1.5H69.4z"
		/>
	<path class="st3" d="M83.9,77.5h-6.7V66.4h6.4v2h-3.9v2.5h3.6v2h-3.6v2.5h4.2V77.5z"/>
	<path class="st3" d="M85.2,77.1v-2.5c0.4,0.4,0.9,0.7,1.5,0.8c0.5,0.2,1.1,0.3,1.6,0.3c0.3,0,0.6,0,0.8-0.1
		c0.2-0.1,0.4-0.1,0.6-0.2c0.2-0.1,0.3-0.2,0.4-0.4c0.1-0.1,0.1-0.3,0.1-0.4c0-0.2-0.1-0.4-0.2-0.6c-0.1-0.2-0.3-0.3-0.5-0.5
		c-0.2-0.1-0.5-0.3-0.8-0.4c-0.3-0.1-0.6-0.3-1-0.4c-0.9-0.4-1.5-0.8-1.9-1.3c-0.4-0.5-0.6-1.2-0.6-1.9c0-0.6,0.1-1.1,0.3-1.5
		c0.2-0.4,0.5-0.8,1-1c0.4-0.3,0.9-0.5,1.4-0.6c0.5-0.1,1.1-0.2,1.7-0.2c0.6,0,1.1,0,1.5,0.1c0.4,0.1,0.9,0.2,1.2,0.3V69
		c-0.2-0.1-0.4-0.2-0.6-0.3c-0.2-0.1-0.4-0.2-0.7-0.2c-0.2-0.1-0.5-0.1-0.7-0.1c-0.2,0-0.4,0-0.7,0c-0.3,0-0.5,0-0.8,0.1
		c-0.2,0.1-0.4,0.1-0.6,0.2c-0.2,0.1-0.3,0.2-0.4,0.4c-0.1,0.1-0.1,0.3-0.1,0.5c0,0.2,0,0.4,0.1,0.5c0.1,0.1,0.2,0.3,0.4,0.4
		c0.2,0.1,0.4,0.3,0.7,0.4c0.3,0.1,0.6,0.3,0.9,0.4c0.4,0.2,0.8,0.4,1.2,0.6c0.4,0.2,0.7,0.4,0.9,0.7c0.3,0.3,0.4,0.6,0.6,0.9
		c0.1,0.3,0.2,0.7,0.2,1.2c0,0.6-0.1,1.1-0.4,1.6c-0.2,0.4-0.6,0.8-1,1c-0.4,0.3-0.9,0.4-1.4,0.6c-0.5,0.1-1.1,0.2-1.7,0.2
		c-0.6,0-1.2-0.1-1.7-0.2C86.1,77.5,85.6,77.3,85.2,77.1z"/>
	<path class="st3" d="M99.3,77.7c-1.6,0-2.9-0.5-3.9-1.6c-1-1-1.5-2.4-1.5-4.1c0-1.8,0.5-3.2,1.5-4.3c1-1.1,2.4-1.6,4-1.6
		c1.6,0,2.9,0.5,3.9,1.6c1,1,1.5,2.4,1.5,4.1c0,1.7-0.5,3.2-1.5,4.2C102.3,77.2,100.9,77.7,99.3,77.7z M99.4,68.4
		c-0.9,0-1.6,0.3-2.1,1c-0.5,0.7-0.8,1.5-0.8,2.6c0,1.1,0.3,2,0.8,2.6c0.5,0.6,1.2,1,2,1c0.9,0,1.5-0.3,2.1-0.9
		c0.5-0.6,0.8-1.5,0.8-2.6c0-1.2-0.2-2.1-0.7-2.7C100.9,68.7,100.3,68.4,99.4,68.4z"/>
	<path class="st3" d="M116,77.5h-2.9l-1.7-2.9c-0.1-0.2-0.3-0.4-0.4-0.6c-0.1-0.2-0.2-0.3-0.4-0.4c-0.1-0.1-0.2-0.2-0.4-0.3
		c-0.1-0.1-0.3-0.1-0.4-0.1h-0.7v4.3h-2.5V66.4h4c2.7,0,4,1,4,3c0,0.4-0.1,0.7-0.2,1.1c-0.1,0.3-0.3,0.6-0.5,0.9
		c-0.2,0.3-0.5,0.5-0.8,0.7c-0.3,0.2-0.7,0.3-1,0.5v0c0.2,0.1,0.3,0.1,0.5,0.3c0.2,0.1,0.3,0.3,0.4,0.4c0.1,0.2,0.3,0.3,0.4,0.5
		c0.1,0.2,0.3,0.4,0.4,0.5L116,77.5z M109.2,68.3v3.1h1.1c0.5,0,1-0.2,1.3-0.5c0.3-0.3,0.5-0.7,0.5-1.2c0-1-0.6-1.5-1.7-1.5H109.2z"
		/>
	<path class="st3" d="M124.4,68.5h-3.2v9.1h-2.5v-9.1h-3.2v-2h8.8V68.5z"/>
	<path class="st3" d="M125.4,77.1v-2.5c0.4,0.4,0.9,0.7,1.5,0.8c0.5,0.2,1.1,0.3,1.6,0.3c0.3,0,0.6,0,0.8-0.1
		c0.2-0.1,0.4-0.1,0.6-0.2c0.2-0.1,0.3-0.2,0.4-0.4c0.1-0.1,0.1-0.3,0.1-0.4c0-0.2-0.1-0.4-0.2-0.6c-0.1-0.2-0.3-0.3-0.5-0.5
		c-0.2-0.1-0.5-0.3-0.8-0.4c-0.3-0.1-0.6-0.3-1-0.4c-0.9-0.4-1.5-0.8-1.9-1.3c-0.4-0.5-0.6-1.2-0.6-1.9c0-0.6,0.1-1.1,0.3-1.5
		c0.2-0.4,0.5-0.8,1-1c0.4-0.3,0.9-0.5,1.4-0.6c0.5-0.1,1.1-0.2,1.7-0.2c0.6,0,1.1,0,1.5,0.1c0.4,0.1,0.9,0.2,1.2,0.3V69
		c-0.2-0.1-0.4-0.2-0.6-0.3c-0.2-0.1-0.4-0.2-0.7-0.2c-0.2-0.1-0.5-0.1-0.7-0.1c-0.2,0-0.4,0-0.7,0c-0.3,0-0.5,0-0.8,0.1
		c-0.2,0.1-0.4,0.1-0.6,0.2c-0.2,0.1-0.3,0.2-0.4,0.4c-0.1,0.1-0.1,0.3-0.1,0.5c0,0.2,0,0.4,0.1,0.5c0.1,0.1,0.2,0.3,0.4,0.4
		c0.2,0.1,0.4,0.3,0.7,0.4c0.3,0.1,0.6,0.3,0.9,0.4c0.4,0.2,0.8,0.4,1.2,0.6c0.4,0.2,0.7,0.4,0.9,0.7c0.3,0.3,0.4,0.6,0.6,0.9
		c0.1,0.3,0.2,0.7,0.2,1.2c0,0.6-0.1,1.1-0.4,1.6c-0.2,0.4-0.6,0.8-1,1c-0.4,0.3-0.9,0.4-1.4,0.6c-0.5,0.1-1.1,0.2-1.7,0.2
		c-0.6,0-1.2-0.1-1.7-0.2C126.3,77.5,125.8,77.3,125.4,77.1z"/>
</g>
</svg>
