<?xml version="1.0" encoding="utf-8"?>
<svg version="1.1" xmlns="http://www.w3.org/2000/svg" viewBox="31 0 74 74">
  <style type="text/css">
    .st0{fill:#FFFFFF;stroke:#024423;stroke-width:0.75;stroke-miterlimit:10;}
    .st1{fill:#024423;stroke:#020101;stroke-width:0.25;stroke-miterlimit:10;}
    .st2{fill:#F3A435;}
  </style>
  <path class="st0" d="M42.4,12.5c0,0,7,5.9-1.3,21.3c0,0-11.1,21.5,24.7,26.8c0,0-13.4-9.1-9.1-24C56.6,36.5,64.5,16.5,42.4,12.5z"/>
  <path class="st0" d="M94.4,12.5c0,0-7,5.9,1.3,21.3c0,0,11.1,21.5-24.7,26.8c0,0,13.4-9.1,9.1-24C80,36.5,72.3,16.5,94.4,12.5z"/>
  <path class="st1" d="M71.4,7.2c0,1.8-1.5,3.2-3.2,3.2c-1.8,0-3.2-1.5-3.2-3.2C65,5.4,66.5,4,68.2,4C70,4,71.4,5.5,71.4,7.2z"/>
  <path class="st1" d="M79.7,12.6c0,1.8-1.5,3.2-3.2,3.2c-1.8,0-3.2-1.5-3.2-3.2c0-1.8,1.5-3.2,3.2-3.2S79.7,10.8,79.7,12.6z"/>
  <path class="st1" d="M62.9,13c0,1.8-1.5,3.2-3.2,3.2c-1.8,0-3.2-1.5-3.2-3.2c0-1.8,1.5-3.2,3.2-3.2S62.9,11.2,62.9,13z"/>
  <path class="st2" d="M68.2,17.8c0,0-22.3,20.9,0,42.8C68.2,60.6,90.1,41.6,68.2,17.8z"/>
</svg>
